<svg width="46" height="46" viewBox="0 0 46 46" fill="none" xmlns="http://www.w3.org/2000/svg">
<g clip-path="url(#clip0_185_242)">
<path d="M11.3137 11.3137C5.07544 17.552 5.07544 27.7029 11.3137 33.9411C17.552 40.1794 27.7029 40.1794 33.9411 33.9411C40.1794 27.7029 40.1794 17.552 33.9411 11.3137C27.7029 5.07546 17.552 5.07546 11.3137 11.3137ZM32.5269 32.5269C27.0682 37.9856 18.1866 37.9856 12.7279 32.5269C7.26923 27.0682 7.26923 18.1866 12.7279 12.7279C18.1866 7.26926 27.0682 7.26926 32.5269 12.7279C37.9856 18.1866 37.9856 27.0682 32.5269 32.5269ZM26.8701 17.385C27.4227 17.385 27.8701 17.8324 27.8699 18.3848V25.4559C27.8699 25.732 27.758 25.9821 27.5772 26.163C27.3963 26.3438 27.1462 26.4557 26.8701 26.4557C26.3175 26.4557 25.87 26.0083 25.8702 25.4559L25.8702 20.7989L19.0919 27.5772C18.7014 27.9677 18.0685 27.968 17.6777 27.5772C17.2868 27.1863 17.2872 26.5535 17.6777 26.163L24.456 19.3846L19.799 19.3847C19.2464 19.3847 18.799 18.9372 18.7991 18.3848C18.7993 17.8324 19.2466 17.3848 19.799 17.385H26.8701Z" fill="url(#paint0_linear_185_242)"/>
</g>
<defs>
<linearGradient id="paint0_linear_185_242" x1="11.3137" y1="33.9411" x2="33.9411" y2="11.3137" gradientUnits="userSpaceOnUse">
<stop offset="0.0817308" stop-color="#DECA8C"/>
<stop offset="0.528846" stop-color="#BC9F44"/>
<stop offset="1" stop-color="#A67F05"/>
</linearGradient>
<clipPath id="clip0_185_242">
<rect width="32" height="32" fill="white" transform="translate(0 22.6274) rotate(-45)"/>
</clipPath>
</defs>
</svg>
