<svg width="32" height="32" viewBox="0 0 32 32" fill="none" xmlns="http://www.w3.org/2000/svg">
<g clip-path="url(#clip0_227_1510)">
<path d="M16 0C7.17775 0 0 7.17775 0 16C0 24.8223 7.17775 32 16 32C24.8223 32 32 24.8223 32 16C32 7.17775 24.8223 0 16 0ZM16 30C8.28025 30 2 23.7197 2 16C2 8.28025 8.28025 2 16 2C23.7197 2 30 8.28025 30 16C30 23.7197 23.7197 30 16 30ZM22.707 15.293C23.0978 15.6838 23.0978 16.3165 22.707 16.707L17.707 21.707C17.5118 21.9023 17.2558 22 17 22C16.7442 22 16.4882 21.9023 16.293 21.707C15.9022 21.3162 15.9022 20.6835 16.293 20.293L19.586 17H10C9.44775 17 9 16.5527 9 16C9 15.4473 9.44775 15 10 15L19.586 15L16.293 11.707C15.9022 11.3162 15.9022 10.6835 16.293 10.293C16.6838 9.9025 17.3165 9.90225 17.707 10.293L22.707 15.293Z" fill="url(#paint0_linear_227_1510)"/>
</g>
<defs>
<linearGradient id="paint0_linear_227_1510" x1="0" y1="16" x2="32" y2="16" gradientUnits="userSpaceOnUse">
<stop offset="0.0817308" stop-color="#DECA8C"/>
<stop offset="0.528846" stop-color="#BC9F44"/>
<stop offset="1" stop-color="#A67F05"/>
</linearGradient>
<clipPath id="clip0_227_1510">
<rect width="32" height="32" fill="white"/>
</clipPath>
</defs>
</svg>
