<svg width="32" height="32" viewBox="0 0 32 32" fill="none" xmlns="http://www.w3.org/2000/svg">
<g clip-path="url(#clip0_227_1466)">
<path d="M31.9688 9.40809C31.8938 7.7078 31.6188 6.53887 31.225 5.52598C30.8186 4.45082 30.1935 3.48823 29.3745 2.68802C28.5743 1.87537 27.6054 1.2439 26.5427 0.843915C25.5239 0.450039 24.3611 0.175083 22.6608 0.100117C20.9478 0.0188025 20.404 0 16.0594 0C11.7148 0 11.171 0.0188025 9.46436 0.0937683C7.76408 0.168734 6.59515 0.443934 5.5825 0.837566C4.5071 1.2439 3.5445 1.86902 2.7443 2.68802C1.93164 3.48823 1.30041 4.45717 0.900189 5.51988C0.506314 6.53887 0.231357 7.70145 0.156392 9.40174C0.0750769 11.1147 0.0562744 11.6585 0.0562744 16.0031C0.0562744 20.3477 0.0750769 20.8915 0.150043 22.5982C0.225009 24.2984 0.500209 25.4674 0.894085 26.4803C1.30041 27.5554 1.93164 28.518 2.7443 29.3182C3.5445 30.1309 4.51344 30.7624 5.57615 31.1623C6.59515 31.5562 7.75773 31.8312 9.45826 31.9061C11.1646 31.9813 11.7087 31.9999 16.0533 31.9999C20.3979 31.9999 20.9417 31.9813 22.6483 31.9061C24.3486 31.8312 25.5175 31.5562 26.5302 31.1623C28.6808 30.3309 30.381 28.6306 31.2125 26.4803C31.6061 25.4613 31.8813 24.2984 31.9563 22.5982C32.0313 20.8915 32.0501 20.3477 32.0501 16.0031C32.0501 11.6585 32.0437 11.1147 31.9688 9.40809ZM29.0871 22.4731C29.0182 24.0359 28.7557 24.8799 28.5369 25.4425C27.9992 26.8365 26.8928 27.943 25.4987 28.4807C24.9361 28.6995 24.0861 28.962 22.5294 29.0306C20.8416 29.1058 20.3354 29.1243 16.0658 29.1243C11.7961 29.1243 11.2836 29.1058 9.60184 29.0306C8.03903 28.962 7.19512 28.6995 6.63251 28.4807C5.93877 28.2243 5.3073 27.8179 4.79475 27.2866C4.2634 26.7677 3.85707 26.1426 3.60067 25.4488C3.38188 24.8862 3.11937 24.0359 3.05076 22.4795C2.97555 20.7917 2.95699 20.2852 2.95699 16.0156C2.95699 11.7459 2.97555 11.2334 3.05076 9.55191C3.11937 7.98911 3.38188 7.14519 3.60067 6.58258C3.85707 5.8886 4.2634 5.25737 4.8011 4.74458C5.31975 4.21322 5.94488 3.8069 6.63886 3.55074C7.20147 3.33195 8.05173 3.06945 9.60819 3.00059C11.296 2.92562 11.8025 2.90682 16.0719 2.90682C20.3478 2.90682 20.854 2.92562 22.5358 3.00059C24.0986 3.06945 24.9425 3.33195 25.5051 3.55074C26.1988 3.8069 26.8303 4.21322 27.3429 4.74458C27.8742 5.26348 28.2805 5.8886 28.5369 6.58258C28.7557 7.14519 29.0182 7.99521 29.0871 9.55191C29.1621 11.2397 29.1809 11.7459 29.1809 16.0156C29.1809 20.2852 29.1621 20.7853 29.0871 22.4731Z" fill="url(#paint0_linear_227_1466)"/>
<path d="M16.0593 7.78271C11.5211 7.78271 7.83899 11.4646 7.83899 16.0031C7.83899 20.5416 11.5211 24.2234 16.0593 24.2234C20.5978 24.2234 24.2797 20.5416 24.2797 16.0031C24.2797 11.4646 20.5978 7.78271 16.0593 7.78271ZM16.0593 21.3354C13.1152 21.3354 10.727 18.9475 10.727 16.0031C10.727 13.0586 13.1152 10.6707 16.0593 10.6707C19.0038 10.6707 21.3917 13.0586 21.3917 16.0031C21.3917 18.9475 19.0038 21.3354 16.0593 21.3354Z" fill="url(#paint1_linear_227_1466)"/>
<path d="M26.5241 7.45765C26.5241 8.51743 25.6648 9.37673 24.6047 9.37673C23.545 9.37673 22.6857 8.51743 22.6857 7.45765C22.6857 6.39763 23.545 5.53857 24.6047 5.53857C25.6648 5.53857 26.5241 6.39763 26.5241 7.45765Z" fill="url(#paint2_linear_227_1466)"/>
</g>
<defs>
<linearGradient id="paint0_linear_227_1466" x1="0.0562744" y1="16" x2="32.0501" y2="16" gradientUnits="userSpaceOnUse">
<stop offset="0.0817308" stop-color="#DECA8C"/>
<stop offset="0.528846" stop-color="#BC9F44"/>
<stop offset="1" stop-color="#A67F05"/>
</linearGradient>
<linearGradient id="paint1_linear_227_1466" x1="7.83899" y1="16.0031" x2="24.2797" y2="16.0031" gradientUnits="userSpaceOnUse">
<stop offset="0.0817308" stop-color="#DECA8C"/>
<stop offset="0.528846" stop-color="#BC9F44"/>
<stop offset="1" stop-color="#A67F05"/>
</linearGradient>
<linearGradient id="paint2_linear_227_1466" x1="22.6857" y1="7.45765" x2="26.5241" y2="7.45765" gradientUnits="userSpaceOnUse">
<stop offset="0.0817308" stop-color="#DECA8C"/>
<stop offset="0.528846" stop-color="#BC9F44"/>
<stop offset="1" stop-color="#A67F05"/>
</linearGradient>
<clipPath id="clip0_227_1466">
<rect width="32" height="32" fill="white"/>
</clipPath>
</defs>
</svg>
