<svg width="31" height="31" viewBox="0 0 31 31" fill="none" xmlns="http://www.w3.org/2000/svg">
<path d="M23.207 0.012207H7.76844C3.49088 0.012207 0 3.50309 0 7.78065V23.2438C0 27.4967 3.49088 30.9876 7.76844 30.9876H23.2316C27.5091 30.9876 31 27.4967 31 23.2192V7.78065C30.9754 3.50309 27.4845 0.012207 23.207 0.012207ZM10.3251 25.0875H5.90008V12.304H10.3251V25.0875ZM8.08803 10.3373C6.83426 10.3373 5.82633 9.32942 5.82633 8.07565C5.82633 6.82188 6.83426 5.81395 8.08803 5.81395C9.34179 5.81395 10.3497 6.82188 10.3497 8.07565C10.3251 9.32942 9.31721 10.3373 8.08803 10.3373ZM25.0999 25.0875H25.0753H21.3878V18.8925C21.3878 17.3929 21.1911 15.4753 19.1507 15.4753C17.0611 15.4753 16.7169 17.0979 16.7169 18.7941V25.0875H13.0293V12.304H16.4711V14.0249H16.5694C17.1102 13.0415 18.364 12.2795 20.3307 12.2795C24.387 12.2795 25.0999 14.6149 25.0999 18.0812V25.0875Z" fill="url(#paint0_linear_227_1478)"/>
<defs>
<linearGradient id="paint0_linear_227_1478" x1="0" y1="15.4999" x2="31" y2="15.4999" gradientUnits="userSpaceOnUse">
<stop offset="0.0817308" stop-color="#DECA8C"/>
<stop offset="0.528846" stop-color="#BC9F44"/>
<stop offset="1" stop-color="#A67F05"/>
</linearGradient>
</defs>
</svg>
