<svg width="44" height="31" viewBox="0 0 44 31" fill="none" xmlns="http://www.w3.org/2000/svg">
<path d="M42.3162 2.58466C40.7568 0.748845 37.8777 0 32.3793 0H12.4201C6.79585 0 3.86799 0.79715 2.31446 2.75166C0.799805 4.65731 0.799805 7.46513 0.799805 11.3512V18.7581C0.799805 26.2867 2.59693 30.1092 12.4201 30.1092H32.3794C37.1476 30.1092 39.7898 29.4484 41.4991 27.8283C43.2521 26.167 44 23.4544 44 18.7581V11.3512C44 7.25301 43.8828 4.42862 42.3162 2.58466ZM28.5345 16.0773L19.4711 20.7684C19.2684 20.8733 19.0469 20.9253 18.8256 20.9253C18.575 20.9253 18.325 20.8585 18.1036 20.7257C17.6866 20.4755 17.432 20.028 17.432 19.5452V10.1931C17.432 9.71112 17.6859 9.26396 18.102 9.01361C18.5183 8.76326 19.036 8.74615 19.4679 8.96834L28.5313 13.6292C28.9924 13.8663 29.282 14.3378 29.2827 14.8522C29.2832 15.3669 28.9949 15.8391 28.5345 16.0773Z" fill="url(#paint0_linear_227_1486)"/>
<defs>
<linearGradient id="paint0_linear_227_1486" x1="0.799805" y1="15.0546" x2="44" y2="15.0546" gradientUnits="userSpaceOnUse">
<stop offset="0.0817308" stop-color="#DECA8C"/>
<stop offset="0.528846" stop-color="#BC9F44"/>
<stop offset="1" stop-color="#A67F05"/>
</linearGradient>
</defs>
</svg>
